<?xml version="1.0" encoding="utf-8"?>
<!-- Generator: Adobe Illustrator 16.0.3, SVG Export Plug-In . SVG Version: 6.00 Build 0)  -->
<!DOCTYPE svg PUBLIC "-//W3C//DTD SVG 1.1//EN" "http://www.w3.org/Graphics/SVG/1.1/DTD/svg11.dtd">
<svg version="1.1" id="Layer_1" xmlns="http://www.w3.org/2000/svg" xmlns:xlink="http://www.w3.org/1999/xlink" x="0px" y="0px"
	 width="20px" height="20px" viewBox="0 0 20 20" enable-background="new 0 0 20 20" xml:space="preserve">
<path fill="#323232" d="M0.142,2.175c0-1.176,0.956-2.132,2.132-2.132h15.453c1.177,0,2.132,0.956,2.132,2.132v15.731
	c0,1.178-0.955,2.133-2.132,2.133H2.274c-1.177,0-2.132-0.955-2.132-2.133V2.175z"/>
<path class="ck-icon__fill" d="M19.246,17.418c0,1.104-0.896,2-2,2H2.754c-1.104,0-2-0.896-2-2V2.664c0-1.104,0.896-2,2-2h14.492c1.104,0,2,0.896,2,2
	V17.418z"/>
</svg>
