<?xml version="1.0" encoding="utf-8"?>
<!-- Generator: Adobe Illustrator 16.0.3, SVG Export Plug-In . SVG Version: 6.00 Build 0)  -->
<!DOCTYPE svg PUBLIC "-//W3C//DTD SVG 1.1//EN" "http://www.w3.org/Graphics/SVG/1.1/DTD/svg11.dtd">
<svg version="1.1" id="Layer_1" xmlns="http://www.w3.org/2000/svg" xmlns:xlink="http://www.w3.org/1999/xlink" x="0px" y="0px"
	 width="20px" height="20px" viewBox="0 0 20 20" enable-background="new 0 0 20 20" xml:space="preserve">
<path class="ck-icon__fill" fill="none" d="M19.733,19.375c0,0.216-0.174,0.39-0.39,0.39H0.67c-0.214,0-0.389-0.174-0.389-0.39V0.701
	c0-0.214,0.174-0.389,0.389-0.389h18.674c0.216,0,0.39,0.174,0.39,0.389V19.375z"/>
<g>
	<path d="M10.401,11.5L7.623,4.785L4.846,11.5H10.401z M11.021,13H4.226L2.56,17.027H0.897l5.789-14h1.875l5.79,14h-1.664L11.021,13
		z"/>
</g>
<path d="M17.93,11.045c-0.066-0.145,0.025-0.334,0.338-0.523c1.061-0.643,1.201-1.526,0.892-2.203
	c-0.392-0.85-1.36-1.243-2.255-0.833c-0.739,0.339-1.24,1.198-0.645,2.439c0.17,0.353,0.129,0.565-0.031,0.64
	c-0.092,0.041-0.205,0.031-0.32,0.006c-0.167-0.039-0.337,0.059-0.387,0.225c-0.055,0.184,0.05,0.373,0.232,0.428l2.233,0.662
	c0.182,0.057,0.372-0.049,0.425-0.229c0.051-0.167-0.04-0.344-0.202-0.402C18.09,11.209,17.977,11.146,17.93,11.045z M17.631,12.482
	l-1.013,3.261c-0.194,0.626-0.631,0.405-0.972,1.05c-0.045,0.088-0.111,0.146-0.184,0.18c-0.185,0.084-0.416,0.012-0.508-0.189
	c-0.029-0.066-0.045-0.147-0.039-0.239c0.049-0.681-0.404-0.78-0.215-1.392l1.008-3.24l0.641,0.189l-0.996,3.189
	c-0.045,0.15,0.129,0.432,0.154,0.625c0.127-0.146,0.438-0.277,0.483-0.43l0.999-3.194L17.631,12.482z"/>
</svg>
